<svg xmlns="http://www.w3.org/2000/svg" viewBox="0 0 64 64">
  <defs>
    <clipPath id="aboveHorizon">
      <rect x="0" y="0" width="64" height="54"/>
    </clipPath>

    <!-- Sun gradient -->
    <radialGradient id="sunCore" cx="50%" cy="50%">
      <stop offset="0%" style="stop-color:#fff9e6;stop-opacity:1" />
      <stop offset="30%" style="stop-color:#ffe8a3;stop-opacity:1" />
      <stop offset="60%" style="stop-color:#ffb347;stop-opacity:0.9" />
      <stop offset="100%" style="stop-color:#ff8c42;stop-opacity:0.3" />
    </radialGradient>

    <radialGradient id="sunGlow" cx="50%" cy="50%">
      <stop offset="0%" style="stop-color:#fff4d6;stop-opacity:0.8" />
      <stop offset="40%" style="stop-color:#ffb347;stop-opacity:0.4" />
      <stop offset="70%" style="stop-color:#ff8c42;stop-opacity:0.2" />
      <stop offset="100%" style="stop-color:#ff6b35;stop-opacity:0" />
    </radialGradient>

    <!-- Nebula gradients -->
    <radialGradient id="nebula1" cx="30%" cy="30%">
      <stop offset="0%" style="stop-color:#a78bfa;stop-opacity:0.4" />
      <stop offset="50%" style="stop-color:#ec4899;stop-opacity:0.2" />
      <stop offset="100%" style="stop-color:#1a1a2e;stop-opacity:0" />
    </radialGradient>

    <radialGradient id="nebula2" cx="70%" cy="20%">
      <stop offset="0%" style="stop-color:#60a5fa;stop-opacity:0.3" />
      <stop offset="50%" style="stop-color:#8b5cf6;stop-opacity:0.15" />
      <stop offset="100%" style="stop-color:#1a1a2e;stop-opacity:0" />
    </radialGradient>

    <!-- Glow filters -->
    <filter id="strongGlow">
      <feGaussianBlur stdDeviation="3" result="coloredBlur"/>
      <feMerge>
        <feMergeNode in="coloredBlur"/>
        <feMergeNode in="coloredBlur"/>
        <feMergeNode in="SourceGraphic"/>
      </feMerge>
    </filter>

    <filter id="softGlow">
      <feGaussianBlur stdDeviation="1.5" result="coloredBlur"/>
      <feMerge>
        <feMergeNode in="coloredBlur"/>
        <feMergeNode in="SourceGraphic"/>
      </feMerge>
    </filter>

    <!-- Sky gradient -->
    <linearGradient id="skyGrad" x1="0%" y1="0%" x2="0%" y2="100%">
      <stop offset="0%" style="stop-color:#1e1b3d;stop-opacity:1" />
      <stop offset="30%" style="stop-color:#2d1b4e;stop-opacity:1" />
      <stop offset="70%" style="stop-color:#1a1a2e;stop-opacity:1" />
      <stop offset="100%" style="stop-color:#2a2440;stop-opacity:1" />
    </linearGradient>
  </defs>

  <!-- Deep space background -->
  <rect width="64" height="64" fill="url(#skyGrad)"/>

  <g clip-path="url(#aboveHorizon)">
    <!-- Distant star field -->
    <g opacity="0.3">
      <circle cx="8" cy="10" r="0.4" fill="#c4b5fd"/>
      <circle cx="15" cy="5" r="0.3" fill="#a5b4fc"/>
      <circle cx="24" cy="8" r="0.5" fill="#ddd6fe"/>
      <circle cx="35" cy="4" r="0.4" fill="#c4b5fd"/>
      <circle cx="42" cy="11" r="0.3" fill="#a5b4fc"/>
      <circle cx="50" cy="7" r="0.5" fill="#c4b5fd"/>
      <circle cx="58" cy="14" r="0.4" fill="#ddd6fe"/>
    </g>

    <!-- Mid-distance stars -->
    <g opacity="0.5">
      <circle cx="12" cy="18" r="0.6" fill="#e0c3fc"/>
      <circle cx="8" cy="35" r="0.5" fill="#c4b5fd"/>
      <circle cx="56" cy="38" r="0.6" fill="#e0c3fc"/>
      <circle cx="10" cy="45" r="0.6" fill="#c4b5fd"/>
      <circle cx="18" cy="42" r="0.5" fill="#ddd6fe"/>
      <circle cx="6" cy="50" r="0.7" fill="#e0c3fc"/>
      <circle cx="22" cy="48" r="0.5" fill="#c4b5fd"/>
    </g>

    <!-- Orion Constellation -->
    <g filter="url(#softGlow)">
      <!-- Betelgeuse -->
      <circle cx="44" cy="10" r="1.3" fill="#ffb4a3" opacity="0.95"/>

      <!-- Bellatrix -->
      <circle cx="56" cy="12" r="1" fill="#e8e8ff" opacity="0.9"/>

      <!-- Belt stars (Alnitak, Alnilam, Mintaka) -->
      <circle cx="46" cy="18" r="1.1" fill="#fef3c7" opacity="0.95"/>
      <circle cx="50" cy="19" r="1.2" fill="#fef3c7" opacity="1"/>
      <circle cx="54" cy="20" r="1" fill="#fef3c7" opacity="0.93"/>

      <!-- Rigel -->
      <circle cx="58" cy="28" r="1.4" fill="#d6e8ff" opacity="1"/>

      <!-- Saiph -->
      <circle cx="42" cy="26" r="0.9" fill="#e8e8ff" opacity="0.88"/>
    </g>

    <!-- Orion constellation lines -->
    <g stroke="#c4b5fd" stroke-width="0.3" opacity="0.4">
      <!-- Shoulders to belt -->
      <line x1="44" y1="10" x2="46" y2="18"/>
      <line x1="56" y1="12" x2="54" y2="20"/>

      <!-- Belt line -->
      <line x1="46" y1="18" x2="50" y2="19"/>
      <line x1="50" y1="19" x2="54" y2="20"/>

      <!-- Belt to legs -->
      <line x1="46" y1="18" x2="42" y2="26"/>
      <line x1="54" y1="20" x2="58" y2="28"/>
    </g>

    <!-- Additional background stars -->
    <g filter="url(#softGlow)" opacity="0.7">
      <circle cx="18" cy="18" r="0.8" fill="#fef3c7"/>
      <circle cx="25" cy="25" r="0.9" fill="#e8e8ff"/>
      <circle cx="32" cy="24" r="0.7" fill="#fef3c7"/>
    </g>

    <!-- Small planet Saturn-like -->
    <g>
      <!-- Planet body -->
      <circle cx="16" cy="40" r="4.5" fill="#e8dcc0" opacity="0.95"/>
      <ellipse
        cx="16"
        cy="40.6"
        rx="3.6"
        ry="1.5"
        fill="#d4c8a8"
        opacity="0.4"/>

      <!-- Rings -->
      <ellipse
        cx="16"
        cy="40"
        rx="7.5"
        ry="2"
        fill="none"
        stroke="#c4b8a0"
        stroke-width="0.9"
        opacity="0.6"
        transform="rotate(45 16 40)"/>
      <ellipse
        cx="16"
        cy="40"
        rx="6.2"
        ry="1.6"
        fill="none"
        stroke="#d4c8a8"
        stroke-width="0.6"
        opacity="0.5"
        transform="rotate(45 16 40)"/>
    </g>

    <!-- Crescent Moon -->
    <g>
      <circle
        cx="12"
        cy="10"
        r="5.5"
        fill="#f5f3e8"
        opacity="0.95"
        filter="url(#softGlow)"/>
      <circle cx="10" cy="10" r="5" fill="#1e1b3d"/>
    </g>

    <!-- Sparkle accents -->
    <g fill="#fef3c7" opacity="0.8" filter="url(#softGlow)">
      <polygon
        points="22,14 22.8,15.5 24.3,16.3 22.8,17.1 22,18.6 21.2,17.1 19.7,16.3 21.2,15.5"/>
    </g>

    <!-- Sun with atmospheric glow -->
    <g>
      <!-- Outer glow layers -->
      <circle
        cx="50"
        cy="58"
        r="22"
        fill="url(#sunGlow)"
        opacity="0.3"
        filter="url(#strongGlow)"/>
      <circle
        cx="50"
        cy="58"
        r="18"
        fill="url(#sunGlow)"
        opacity="0.5"
        filter="url(#softGlow)"/>

      <!-- Sun core -->
      <circle
        cx="50"
        cy="58"
        r="15"
        fill="url(#sunCore)"
        filter="url(#softGlow)"/>

      <!-- Bright center -->
      <circle cx="50" cy="58" r="12" fill="#fffef8" opacity="0.9"/>
    </g>

    <!-- Atmospheric layers near horizon -->
    <ellipse cx="50" cy="53.5" rx="30" ry="1.5" fill="#ff8c42" opacity="0.15"/>
    <ellipse cx="50" cy="54" rx="28" ry="1.2" fill="#ffb347" opacity="0.2"/>
  </g>

  <!-- Horizon line -->
  <line
    x1="0"
    y1="54"
    x2="64"
    y2="54"
    stroke="#ffb347"
    stroke-width="0.5"
    opacity="0.5"/>

  <!-- Ground/below horizon -->
  <rect x="0" y="54" width="64" height="10" fill="#16162a"/>
</svg>
